<svg width="64" height="64" viewBox="0 0 64 64" fill="none" xmlns="http://www.w3.org/2000/svg">
<rect x="3" y="3" width="58" height="58" rx="5" stroke="white" stroke-width="6"/>
<path fill-rule="evenodd" clip-rule="evenodd" d="M30 14C30 12.8954 29.1046 12 28 12H14C12.8954 12 12 12.8954 12 14V28C12 29.1046 12.8954 30 14 30H16C17.1046 30 18 30.8954 18 32V32C18 33.1046 17.1046 34 16 34H14C12.8954 34 12 34.8954 12 36V50C12 51.1046 12.8954 52 14 52H28C29.1046 52 30 51.1046 30 50V48C30 46.8954 30.8954 46 32 46V46C33.1046 46 34 46.8954 34 48V50C34 51.1046 34.8954 52 36 52H50C51.1046 52 52 51.1046 52 50V36C52 34.8954 51.1046 34 50 34H48C46.8954 34 46 33.1046 46 32V32C46 30.8954 46.8954 30 48 30H50C51.1046 30 52 29.1046 52 28V14C52 12.8954 51.1046 12 50 12H36C34.8954 12 34 12.8954 34 14V16C34 17.1046 33.1046 18 32 18V18C30.8954 18 30 17.1046 30 16V14Z" fill="white"/>
</svg>
